<svg xmlns="http://www.w3.org/2000/svg" xmlns:xlink="http://www.w3.org/1999/xlink" viewBox="0 0 884.64 820.51"><defs><style>.cls-1{fill:#533f9d;}.cls-2{fill:url(#linear-gradient);}.cls-3{fill:#7565b1;}.cls-4{fill:#988cc4;}.cls-5{fill:url(#linear-gradient-2);}.cls-6{fill:#19977e;}.cls-7{fill:url(#linear-gradient-3);}.cls-8{fill:#4dae9b;}.cls-9{fill:#80c5b8;}.cls-10{fill:url(#linear-gradient-4);}</style><linearGradient id="linear-gradient" x1="1162.34" y1="555.06" x2="947.29" y2="408.91" gradientTransform="translate(2174.16 750.18) rotate(180)" gradientUnits="userSpaceOnUse"><stop offset="0.08" stop-color="#ddd9eb"/><stop offset="0.16" stop-color="#d5d0e6"/><stop offset="0.29" stop-color="#beb6da"/><stop offset="0.46" stop-color="#998dc5"/><stop offset="0.57" stop-color="#7e6fb6"/><stop offset="0.65" stop-color="#6a5ca0"/><stop offset="0.84" stop-color="#453776"/><stop offset="0.93" stop-color="#362966"/></linearGradient><linearGradient id="linear-gradient-2" x1="1114.25" y1="328.25" x2="846.36" y2="195.47" gradientTransform="translate(2174.16 750.18) rotate(180)" gradientUnits="userSpaceOnUse"><stop offset="0.69" stop-color="#6d5cac" stop-opacity="0.1"/><stop offset="0.73" stop-color="#7767b2" stop-opacity="0.13"/><stop offset="0.8" stop-color="#9285c1" stop-opacity="0.23"/><stop offset="0.89" stop-color="#beb6da" stop-opacity="0.38"/><stop offset="0.99" stop-color="#fafafc" stop-opacity="0.58"/><stop offset="1" stop-color="#fff" stop-opacity="0.6"/></linearGradient><linearGradient id="linear-gradient-3" x1="813.61" y1="871.88" x2="598.56" y2="725.73" gradientUnits="userSpaceOnUse"><stop offset="0.08" stop-color="#a6d6cd"/><stop offset="0.15" stop-color="#9dd2c8"/><stop offset="0.28" stop-color="#83c6ba"/><stop offset="0.43" stop-color="#5ab4a3"/><stop offset="0.49" stop-color="#49ac99"/><stop offset="0.63" stop-color="#239b83"/><stop offset="0.71" stop-color="#0d9177"/><stop offset="0.77" stop-color="#0b876f"/><stop offset="0.87" stop-color="#076d58"/><stop offset="0.99" stop-color="#004638"/></linearGradient><linearGradient id="linear-gradient-4" x1="765.52" y1="645.06" x2="497.63" y2="512.29" gradientUnits="userSpaceOnUse"><stop offset="0.08" stop-color="#a6d6cd" stop-opacity="0"/><stop offset="0.21" stop-color="#95cfc4" stop-opacity="0.06"/><stop offset="0.43" stop-color="#69baab" stop-opacity="0.24"/><stop offset="0.7" stop-color="#209a82" stop-opacity="0.52"/><stop offset="0.76" stop-color="#0d9177" stop-opacity="0.6"/><stop offset="0.84" stop-color="#0a8169" stop-opacity="0.6"/><stop offset="0.96" stop-color="#035444" stop-opacity="0.6"/><stop offset="1" stop-color="#004638" stop-opacity="0.6"/></linearGradient></defs><g id="Layer_2" data-name="Layer 2"><path class="cls-1" d="M917,582.48v-.09a339,339,0,0,0,250-96.7c7.87,90.77-29.49,179.8-99,249.3a342,342,0,0,1-30.41,27,340.55,340.55,0,0,1-155.39-26.06l.12-.28A80,80,0,0,1,917,582.48Z" transform="translate(-470.4 -123.24)"/><path class="cls-2" d="M1025,316.82a129.94,129.94,0,0,1,14.23-147.63q3.43-4,7.26-7.88a130,130,0,0,1,168.79-12.93,131.48,131.48,0,0,1,15.06,12.94,129.75,129.75,0,0,1,37.54,103.87l.55.05a340.52,340.52,0,0,1-18.14,89.38c-.15.43-.3.87-.46,1.3A338.56,338.56,0,0,1,1169.63,483l-2.68,2.65c0-.06,0-.13,0-.19a539.4,539.4,0,0,1-47.83-43.09A550.15,550.15,0,0,1,1025,316.84Z" transform="translate(-470.4 -123.24)"/><path class="cls-3" d="M1037.54,762A342,342,0,0,0,1068,735c69.51-69.5,106.87-158.53,99-249.3l2.68-2.65a338.56,338.56,0,0,0,80.23-127.12l1.25.44A340.26,340.26,0,0,1,1211,700.48,338.55,338.55,0,0,1,1037.54,762Z" transform="translate(-470.4 -123.24)"/><path class="cls-4" d="M1265.63,193.36h0c85.55,93.43,109.48,223.08,71.77,336.75A341.35,341.35,0,0,1,1211,700.48a340.26,340.26,0,0,0,40.13-344.12l-1.25-.44c.16-.43.31-.87.46-1.3a340.52,340.52,0,0,0,18.14-89.38l-.55-.05a129.75,129.75,0,0,0-37.54-103.87,131.48,131.48,0,0,0-15.06-12.94l.07-.1a341.5,341.5,0,0,1,39.73,34.09C1258.72,186,1262.22,189.63,1265.63,193.36Z" transform="translate(-470.4 -123.24)"/><path class="cls-5" d="M1037.86,761.94a342,342,0,0,0,30.41-27c69.51-69.5,106.87-158.53,99-249.3L1170,483a338.56,338.56,0,0,0,80.23-127.12c.16-.43.31-.87.46-1.3a340.52,340.52,0,0,0,18.14-89.38l-.55-.05a129.75,129.75,0,0,0-37.54-103.87,131.48,131.48,0,0,0-15.06-12.94l.07-.1a341.5,341.5,0,0,1,39.73,34.09c3.61,3.61,7.11,7.26,10.52,11h0c85.55,93.43,109.48,223.08,71.77,336.75a339.91,339.91,0,0,1-299.87,231.88Z" transform="translate(-470.4 -123.24)"/></g><g id="Layer_1" data-name="Layer 1"><path class="cls-6" d="M908.43,484.52v.09a339,339,0,0,0-249.95,96.7c-7.87-90.77,29.49-179.8,99-249.3a342,342,0,0,1,30.41-27,340.55,340.55,0,0,1,155.39,26.06l-.12.28a80,80,0,0,1-34.73,153.18Z" transform="translate(-470.4 -123.24)"/><path class="cls-7" d="M800.4,750.18a129.94,129.94,0,0,1-14.23,147.63q-3.43,4.05-7.26,7.88a130,130,0,0,1-168.79,12.93,131.48,131.48,0,0,1-15.06-12.94,129.75,129.75,0,0,1-37.54-103.87l-.55,0a340.52,340.52,0,0,1,18.14-89.38c.15-.43.3-.87.46-1.3A338.56,338.56,0,0,1,655.8,584l2.68-2.65c0,.06,0,.13,0,.19a539.4,539.4,0,0,1,47.83,43.09,550.15,550.15,0,0,1,94.1,125.57Z" transform="translate(-470.4 -123.24)"/><path class="cls-8" d="M787.89,305a342,342,0,0,0-30.41,27c-69.51,69.5-106.87,158.53-99,249.3L655.8,584a338.56,338.56,0,0,0-80.23,127.12l-1.25-.44a340.26,340.26,0,0,1,40.13-344.12A338.55,338.55,0,0,1,787.89,305Z" transform="translate(-470.4 -123.24)"/><path class="cls-9" d="M559.8,873.64h0C474.24,780.2,450.31,650.55,488,536.88A341.35,341.35,0,0,1,614.45,366.52a340.26,340.26,0,0,0-40.13,344.12l1.25.44c-.16.43-.31.87-.46,1.3A340.52,340.52,0,0,0,557,801.76l.55,0a129.75,129.75,0,0,0,37.54,103.87,131.48,131.48,0,0,0,15.06,12.94l-.07.1a341.5,341.5,0,0,1-39.73-34.09C566.71,881,563.21,877.37,559.8,873.64Z" transform="translate(-470.4 -123.24)"/><path class="cls-10" d="M787.57,305.06a342,342,0,0,0-30.41,27c-69.51,69.5-106.87,158.53-99,249.3L655.48,584a338.56,338.56,0,0,0-80.23,127.12c-.16.43-.31.87-.46,1.3a340.52,340.52,0,0,0-18.14,89.38l.55,0a129.75,129.75,0,0,0,37.54,103.87,131.48,131.48,0,0,0,15.06,12.94l-.07.1A341.5,341.5,0,0,1,570,884.69c-3.61-3.61-7.11-7.26-10.52-11h0C473.92,780.26,450,650.61,487.7,536.94A339.91,339.91,0,0,1,787.57,305.06Z" transform="translate(-470.4 -123.24)"/></g></svg>